<?xml version="1.0" standalone="no"?>
<!DOCTYPE svg PUBLIC "-//W3C//DTD SVG 20010904//EN"
 "http://www.w3.org/TR/2001/REC-SVG-20010904/DTD/svg10.dtd">
<svg version="1.0" xmlns="http://www.w3.org/2000/svg"
 width="329.000000pt" height="329.000000pt" viewBox="0 0 329.000000 329.000000"
 preserveAspectRatio="xMidYMid meet">
<metadata>
Created by potrace 1.14, written by Peter Selinger 2001-2017
</metadata>
<g transform="translate(0.000000,329.000000) scale(0.100000,-0.100000)"
fill="#000000" stroke="none">
<path d="M1807 2736 l-56 -43 -58 9 c-32 5 -77 8 -100 5 -26 -3 -44 0 -47 7
-3 7 -5 7 -5 1 -1 -6 -15 -9 -33 -7 -31 3 -129 -8 -207 -23 -55 -11 -194 -62
-256 -95 -94 -49 -181 -117 -263 -202 -129 -134 -165 -171 -216 -217 -35 -31
-45 -45 -36 -51 15 -9 40 -2 40 11 0 5 7 9 15 9 12 0 10 -10 -10 -50 -14 -27
-22 -50 -19 -50 4 0 2 -6 -4 -13 -33 -40 -76 -248 -76 -372 0 -87 26 -260 45
-296 6 -12 -1 -24 -27 -48 -24 -20 -34 -37 -30 -47 5 -14 10 -13 41 6 l35 22
11 -28 c5 -16 21 -49 33 -74 19 -38 21 -49 11 -63 -7 -9 -15 -17 -17 -17 -14
0 -75 -67 -71 -77 8 -22 26 -14 71 27 24 22 46 40 51 40 4 0 17 -17 28 -38 25
-44 68 -96 141 -170 l52 -54 -46 -42 c-145 -131 -159 -146 -145 -155 18 -12
41 6 188 142 l31 29 79 -48 c43 -26 115 -64 160 -86 l82 -38 -41 -38 c-24 -23
-38 -44 -34 -50 11 -19 19 -15 72 33 27 24 54 44 59 45 6 0 44 -10 85 -23 52
-15 107 -24 178 -26 420 -12 812 229 992 612 32 67 52 93 109 146 67 60 87 91
59 91 -6 0 -34 -18 -60 -41 -47 -39 -49 -40 -44 -15 3 14 7 30 10 35 4 5 9 31
11 58 3 26 7 57 9 68 3 11 5 47 6 80 1 57 3 61 40 90 21 17 41 36 44 43 11 25
-25 24 -59 -2 -40 -31 -40 -30 -50 54 -4 30 -9 62 -10 70 -2 8 -7 29 -10 45
-3 17 -8 37 -10 46 -3 10 16 35 50 68 50 46 62 71 35 71 -5 0 -30 -18 -56 -41
l-48 -41 -9 23 c-6 13 -11 26 -11 29 -1 3 -14 31 -29 64 -51 110 -163 247
-286 349 -25 20 -43 38 -40 40 53 40 159 132 159 138 0 26 -30 13 -104 -45
-47 -36 -89 -66 -94 -66 -5 0 -50 21 -100 46 -51 25 -97 47 -104 48 -7 1 -17
4 -23 7 -5 4 -28 12 -49 19 l-40 13 43 36 c36 31 41 39 29 49 -12 9 -25 3 -71
-32z m-64 -197 c244 -48 467 -209 597 -428 179 -305 166 -680 -34 -979 -110
-164 -306 -308 -485 -358 -31 -8 -63 -18 -71 -21 -46 -18 -271 -22 -355 -6
-38 8 -78 15 -87 16 -10 2 -21 6 -24 10 -4 4 -13 7 -20 7 -24 0 -147 61 -219
108 -81 53 -196 166 -247 244 -104 157 -148 299 -160 513 -4 62 27 237 54 310
16 42 89 189 97 195 4 3 17 21 28 40 12 19 49 62 83 95 85 82 78 77 146 123
196 134 445 180 697 131z"/>
<path d="M1511 2174 c-23 -36 -41 -68 -39 -70 10 -9 128 21 133 33 4 12 -40
103 -49 103 -2 0 -22 -30 -45 -66z"/>
<path d="M1608 2083 c-18 -22 -54 -92 -79 -156 l-19 -48 77 42 c43 23 88 49
99 58 l22 17 -32 52 c-33 56 -45 62 -68 35z"/>
<path d="M1505 2076 c-57 -11 -62 -14 -97 -66 -21 -30 -37 -57 -38 -60 0 -3
21 -27 45 -53 l46 -48 15 38 c23 56 54 123 75 166 11 20 18 36 17 36 -2 -1
-30 -7 -63 -13z"/>
<path d="M1714 1961 c-12 -12 -66 -44 -146 -86 -36 -19 -70 -39 -73 -46 -8
-12 42 -69 61 -69 7 0 49 11 93 25 73 23 81 29 100 66 19 36 20 42 6 67 -25
46 -31 52 -41 43z"/>
<path d="M1313 1859 c-22 -35 -39 -65 -38 -67 4 -4 128 38 137 46 4 4 -8 25
-26 46 l-32 39 -41 -64z"/>
<path d="M1786 1851 c-4 -7 -5 -15 -2 -18 9 -9 19 4 14 18 -4 11 -6 11 -12 0z"/>
<path d="M1405 1796 c-16 -7 -60 -21 -96 -30 l-66 -18 4 -37 c3 -20 6 -37 8
-39 3 -3 157 37 162 42 8 7 30 96 25 96 -4 -1 -20 -7 -37 -14z"/>
<path d="M1786 1795 c-20 -7 -38 -15 -39 -17 -44 -85 -68 -140 -65 -144 3 -3
18 8 34 23 16 16 52 48 81 73 45 39 51 47 40 61 -11 15 -17 15 -51 4z"/>
<path d="M1466 1764 c-11 -29 6 -42 33 -25 12 8 12 12 2 25 -17 20 -27 20 -35
0z"/>
<path d="M1650 1753 c-25 -8 -51 -17 -59 -19 -10 -3 -5 -14 19 -39 19 -19 36
-35 39 -35 8 0 55 100 50 104 -2 2 -24 -3 -49 -11z"/>
<path d="M1792 1681 c-79 -68 -83 -73 -74 -87 12 -16 104 -94 112 -94 5 0 31
29 58 63 l50 64 -30 49 c-17 27 -34 53 -38 57 -4 5 -39 -19 -78 -52z"/>
<path d="M1498 1706 c-20 -6 -41 -16 -47 -21 -9 -10 -44 -160 -56 -241 -5 -37
-3 -42 20 -52 29 -14 55 -16 55 -4 0 4 13 21 28 38 92 105 117 136 128 164 13
30 12 32 -35 80 -27 28 -51 50 -53 49 -1 -1 -20 -6 -40 -13z"/>
<path d="M1202 1680 c-10 -17 -10 -20 3 -20 8 0 15 9 15 20 0 11 -1 20 -3 20
-1 0 -8 -9 -15 -20z"/>
<path d="M1337 1659 c-38 -9 -71 -19 -74 -22 -2 -3 2 -40 11 -82 9 -43 16 -87
16 -99 0 -17 9 -25 34 -33 l33 -10 19 101 c10 55 19 106 20 111 0 6 4 18 9 28
4 10 6 19 4 21 -2 2 -35 -5 -72 -15z"/>
<path d="M1178 1623 c-29 -8 -64 -74 -58 -112 5 -32 8 -35 70 -52 36 -10 66
-16 67 -15 2 2 -14 110 -22 146 -2 8 -4 21 -4 28 -1 12 -20 14 -53 5z"/>
<path d="M1940 1583 c0 -5 -12 -21 -26 -38 -15 -16 -33 -40 -41 -52 -16 -24
-19 -19 40 -72 l27 -25 42 44 42 43 -29 53 c-16 30 -35 54 -42 54 -7 0 -13 -3
-13 -7z"/>
<path d="M1661 1556 c-25 -27 -58 -124 -67 -196 -5 -42 -3 -50 14 -59 12 -6
29 -11 39 -11 19 0 26 6 83 80 19 25 37 47 40 50 3 3 13 15 24 27 20 24 22 21
-80 106 l-31 26 -22 -23z"/>
<path d="M1565 1455 c-6 -7 -25 -31 -43 -53 l-32 -40 31 -16 c18 -9 33 -15 34
-14 4 9 26 131 23 134 -2 1 -8 -3 -13 -11z"/>
<path d="M1805 1412 c-16 -20 -44 -56 -63 -79 l-34 -43 70 1 c67 1 72 3 101
35 17 18 31 37 31 42 0 10 -24 38 -55 64 -20 17 -22 16 -50 -20z"/>
<path d="M1996 1410 l-37 -40 26 -35 c15 -19 34 -36 43 -39 24 -7 112 -6 112
2 0 9 -94 152 -101 152 -3 0 -22 -18 -43 -40z"/>
<path d="M1005 1369 c-27 -41 -42 -75 -36 -78 5 -3 30 -5 55 -3 44 4 46 5 47
36 0 17 2 50 5 74 9 65 -17 54 -71 -29z"/>
<path d="M1117 1433 c-3 -4 -8 -38 -12 -75 l-7 -68 33 -1 c92 -2 128 -1 136 4
5 3 6 29 3 59 -5 50 -7 54 -40 64 -54 18 -108 25 -113 17z"/>
<path d="M1305 1344 c7 -55 9 -58 28 -51 9 3 14 20 13 49 -1 37 -4 43 -24 46
-23 4 -24 2 -17 -44z"/>
<path d="M1380 1329 c0 -37 1 -38 20 -27 37 23 34 58 -5 64 -11 2 -15 -8 -15
-37z"/>
<path d="M1452 1315 c-9 -20 -7 -22 34 -24 53 -2 56 9 10 30 -33 15 -35 15
-44 -6z"/>
<path d="M1923 1328 c-24 -32 -23 -36 12 -36 38 0 41 4 21 31 -16 20 -20 21
-33 5z"/>
</g>
</svg>
